ISO-10303-21;
HEADER;
/* Generated by software containing ST-Developer
 * from STEP Tools, Inc. (www.steptools.com) 
 */
/* OPTION: using custom renumber hook */

FILE_DESCRIPTION(
/* description */ ('STEP AP242 Edition 2',
'CAx-IF Rec.Pracs.---Representation and Presentation of Product Manufa
cturing Information (PMI)---4.0---2014-10-13',
'CAx-IF Rec.Pracs.---3D Tessellated Geometry---0.4---2014-09-14','2;1',
'CAx-IF Rec.Pracs.---User Defined Attributes---1.5---2016-08-15'),
/* implementation_level */ '2;1');

FILE_NAME(
/* name */ 'NEMA23 - NEMA',
/* time_stamp */ '2026-01-08T15:33:13Z',
/* author */ (''),
/* organization */ (''),
/* preprocessor_version */ 'ST-DEVELOPER v20',
/* originating_system */ 'ONSHAPE BY PTC INC, 1.208',
/* authorisation */ '  ');

FILE_SCHEMA (('AP242_MANAGED_MODEL_BASED_3D_ENGINEERING_MIM_LF { 1 0 10303 442 3 1 4 }'));
ENDSEC;

DATA;
#10=SHAPE_REPRESENTATION_RELATIONSHIP('','',#559,#11);
#11=ADVANCED_BREP_SHAPE_REPRESENTATION('',(#557),#909);
#12=CYLINDRICAL_SURFACE('',#588,0.01905);
#13=CYLINDRICAL_SURFACE('',#594,0.0025);
#14=CYLINDRICAL_SURFACE('',#597,0.0025);
#15=CYLINDRICAL_SURFACE('',#600,0.0025);
#16=CYLINDRICAL_SURFACE('',#603,0.0025);
#17=CYLINDRICAL_SURFACE('',#606,0.0025);
#18=LINE('',#762,#74);
#19=LINE('',#764,#75);
#20=LINE('',#766,#76);
#21=LINE('',#768,#77);
#22=LINE('',#770,#78);
#23=LINE('',#775,#79);
#24=LINE('',#777,#80);
#25=LINE('',#779,#81);
#26=LINE('',#781,#82);
#27=LINE('',#783,#83);
#28=LINE('',#788,#84);
#29=LINE('',#790,#85);
#30=LINE('',#792,#86);
#31=LINE('',#794,#87);
#32=LINE('',#796,#88);
#33=LINE('',#801,#89);
#34=LINE('',#803,#90);
#35=LINE('',#805,#91);
#36=LINE('',#807,#92);
#37=LINE('',#809,#93);
#38=LINE('',#811,#94);
#39=LINE('',#814,#95);
#40=LINE('',#815,#96);
#41=LINE('',#816,#97);
#42=LINE('',#818,#98);
#43=LINE('',#820,#99);
#44=LINE('',#822,#100);
#45=LINE('',#823,#101);
#46=LINE('',#825,#102);
#47=LINE('',#827,#103);
#48=LINE('',#829,#104);
#49=LINE('',#830,#105);
#50=LINE('',#832,#106);
#51=LINE('',#834,#107);
#52=LINE('',#836,#108);
#53=LINE('',#837,#109);
#54=LINE('',#839,#110);
#55=LINE('',#841,#111);
#56=LINE('',#843,#112);
#57=LINE('',#844,#113);
#58=LINE('',#846,#114);
#59=LINE('',#849,#115);
#60=LINE('',#850,#116);
#61=LINE('',#852,#117);
#62=LINE('',#853,#118);
#63=LINE('',#855,#119);
#64=LINE('',#857,#120);
#65=LINE('',#858,#121);
#66=LINE('',#860,#122);
#67=LINE('',#863,#123);
#68=LINE('',#864,#124);
#69=LINE('',#865,#125);
#70=LINE('',#878,#126);
#71=LINE('',#879,#127);
#72=LINE('',#880,#128);
#73=LINE('',#881,#129);
#74=VECTOR('',#613,1.);
#75=VECTOR('',#614,1.);
#76=VECTOR('',#615,1.);
#77=VECTOR('',#616,1.);
#78=VECTOR('',#617,1.);
#79=VECTOR('',#622,1.);
#80=VECTOR('',#623,1.);
#81=VECTOR('',#624,1.);
#82=VECTOR('',#625,1.);
#83=VECTOR('',#626,1.);
#84=VECTOR('',#631,1.);
#85=VECTOR('',#632,1.);
#86=VECTOR('',#633,1.);
#87=VECTOR('',#634,1.);
#88=VECTOR('',#635,1.);
#89=VECTOR('',#640,1.);
#90=VECTOR('',#641,1.);
#91=VECTOR('',#642,1.);
#92=VECTOR('',#643,1.);
#93=VECTOR('',#644,1.);
#94=VECTOR('',#647,1.);
#95=VECTOR('',#648,1.);
#96=VECTOR('',#649,1.);
#97=VECTOR('',#650,1.);
#98=VECTOR('',#653,1.);
#99=VECTOR('',#654,1.);
#100=VECTOR('',#655,1.);
#101=VECTOR('',#656,1.);
#102=VECTOR('',#657,1.);
#103=VECTOR('',#660,1.);
#104=VECTOR('',#661,1.);
#105=VECTOR('',#662,1.);
#106=VECTOR('',#665,1.);
#107=VECTOR('',#666,1.);
#108=VECTOR('',#667,1.);
#109=VECTOR('',#668,1.);
#110=VECTOR('',#669,1.);
#111=VECTOR('',#672,1.);
#112=VECTOR('',#673,1.);
#113=VECTOR('',#674,1.);
#114=VECTOR('',#677,1.);
#115=VECTOR('',#678,1.);
#116=VECTOR('',#679,1.);
#117=VECTOR('',#680,1.);
#118=VECTOR('',#681,1.);
#119=VECTOR('',#684,1.);
#120=VECTOR('',#685,1.);
#121=VECTOR('',#686,1.);
#122=VECTOR('',#689,1.);
#123=VECTOR('',#690,1.);
#124=VECTOR('',#691,1.);
#125=VECTOR('',#692,1.);
#126=VECTOR('',#707,1.);
#127=VECTOR('',#708,1.);
#128=VECTOR('',#709,1.);
#129=VECTOR('',#710,1.);
#130=ORIENTED_EDGE('',*,*,#274,.F.);
#131=ORIENTED_EDGE('',*,*,#275,.F.);
#132=ORIENTED_EDGE('',*,*,#276,.F.);
#133=ORIENTED_EDGE('',*,*,#277,.T.);
#134=ORIENTED_EDGE('',*,*,#278,.T.);
#135=ORIENTED_EDGE('',*,*,#279,.F.);
#136=ORIENTED_EDGE('',*,*,#280,.F.);
#137=ORIENTED_EDGE('',*,*,#281,.F.);
#138=ORIENTED_EDGE('',*,*,#282,.F.);
#139=ORIENTED_EDGE('',*,*,#283,.T.);
#140=ORIENTED_EDGE('',*,*,#284,.F.);
#141=ORIENTED_EDGE('',*,*,#285,.F.);
#142=ORIENTED_EDGE('',*,*,#286,.F.);
#143=ORIENTED_EDGE('',*,*,#287,.F.);
#144=ORIENTED_EDGE('',*,*,#288,.T.);
#145=ORIENTED_EDGE('',*,*,#289,.T.);
#146=ORIENTED_EDGE('',*,*,#290,.F.);
#147=ORIENTED_EDGE('',*,*,#291,.F.);
#148=ORIENTED_EDGE('',*,*,#292,.F.);
#149=ORIENTED_EDGE('',*,*,#293,.F.);
#150=ORIENTED_EDGE('',*,*,#294,.T.);
#151=ORIENTED_EDGE('',*,*,#295,.T.);
#152=ORIENTED_EDGE('',*,*,#296,.T.);
#153=ORIENTED_EDGE('',*,*,#297,.F.);
#154=ORIENTED_EDGE('',*,*,#298,.F.);
#155=ORIENTED_EDGE('',*,*,#299,.F.);
#156=ORIENTED_EDGE('',*,*,#275,.T.);
#157=ORIENTED_EDGE('',*,*,#300,.T.);
#158=ORIENTED_EDGE('',*,*,#279,.T.);
#159=ORIENTED_EDGE('',*,*,#301,.T.);
#160=ORIENTED_EDGE('',*,*,#284,.T.);
#161=ORIENTED_EDGE('',*,*,#302,.T.);
#162=ORIENTED_EDGE('',*,*,#303,.F.);
#163=ORIENTED_EDGE('',*,*,#304,.T.);
#164=ORIENTED_EDGE('',*,*,#276,.T.);
#165=ORIENTED_EDGE('',*,*,#299,.T.);
#166=ORIENTED_EDGE('',*,*,#305,.T.);
#167=ORIENTED_EDGE('',*,*,#306,.F.);
#168=ORIENTED_EDGE('',*,*,#307,.F.);
#169=ORIENTED_EDGE('',*,*,#308,.F.);
#170=ORIENTED_EDGE('',*,*,#281,.T.);
#171=ORIENTED_EDGE('',*,*,#309,.T.);
#172=ORIENTED_EDGE('',*,*,#285,.T.);
#173=ORIENTED_EDGE('',*,*,#306,.T.);
#174=ORIENTED_EDGE('',*,*,#290,.T.);
#175=ORIENTED_EDGE('',*,*,#310,.T.);
#176=ORIENTED_EDGE('',*,*,#311,.F.);
#177=ORIENTED_EDGE('',*,*,#312,.T.);
#178=ORIENTED_EDGE('',*,*,#282,.T.);
#179=ORIENTED_EDGE('',*,*,#308,.T.);
#180=ORIENTED_EDGE('',*,*,#313,.T.);
#181=ORIENTED_EDGE('',*,*,#314,.F.);
#182=ORIENTED_EDGE('',*,*,#315,.F.);
#183=ORIENTED_EDGE('',*,*,#316,.F.);
#184=ORIENTED_EDGE('',*,*,#287,.T.);
#185=ORIENTED_EDGE('',*,*,#317,.T.);
#186=ORIENTED_EDGE('',*,*,#291,.T.);
#187=ORIENTED_EDGE('',*,*,#314,.T.);
#188=ORIENTED_EDGE('',*,*,#318,.T.);
#189=ORIENTED_EDGE('',*,*,#319,.T.);
#190=ORIENTED_EDGE('',*,*,#288,.F.);
#191=ORIENTED_EDGE('',*,*,#316,.T.);
#192=ORIENTED_EDGE('',*,*,#320,.F.);
#193=ORIENTED_EDGE('',*,*,#321,.F.);
#194=ORIENTED_EDGE('',*,*,#296,.F.);
#195=ORIENTED_EDGE('',*,*,#322,.T.);
#196=ORIENTED_EDGE('',*,*,#323,.F.);
#197=ORIENTED_EDGE('',*,*,#324,.F.);
#198=ORIENTED_EDGE('',*,*,#293,.T.);
#199=ORIENTED_EDGE('',*,*,#325,.T.);
#200=ORIENTED_EDGE('',*,*,#297,.T.);
#201=ORIENTED_EDGE('',*,*,#321,.T.);
#202=ORIENTED_EDGE('',*,*,#326,.T.);
#203=ORIENTED_EDGE('',*,*,#327,.T.);
#204=ORIENTED_EDGE('',*,*,#294,.F.);
#205=ORIENTED_EDGE('',*,*,#324,.T.);
#206=ORIENTED_EDGE('',*,*,#328,.F.);
#207=ORIENTED_EDGE('',*,*,#301,.F.);
#208=ORIENTED_EDGE('',*,*,#278,.F.);
#209=ORIENTED_EDGE('',*,*,#329,.T.);
#210=ORIENTED_EDGE('',*,*,#298,.T.);
#211=ORIENTED_EDGE('',*,*,#328,.T.);
#212=ORIENTED_EDGE('',*,*,#323,.T.);
#213=ORIENTED_EDGE('',*,*,#320,.T.);
#214=ORIENTED_EDGE('',*,*,#315,.T.);
#215=ORIENTED_EDGE('',*,*,#313,.F.);
#216=ORIENTED_EDGE('',*,*,#307,.T.);
#217=ORIENTED_EDGE('',*,*,#305,.F.);
#218=ORIENTED_EDGE('',*,*,#330,.F.);
#219=ORIENTED_EDGE('',*,*,#331,.F.);
#220=ORIENTED_EDGE('',*,*,#332,.F.);
#221=ORIENTED_EDGE('',*,*,#333,.F.);
#222=ORIENTED_EDGE('',*,*,#334,.F.);
#223=ORIENTED_EDGE('',*,*,#311,.T.);
#224=ORIENTED_EDGE('',*,*,#335,.T.);
#225=ORIENTED_EDGE('',*,*,#318,.F.);
#226=ORIENTED_EDGE('',*,*,#336,.T.);
#227=ORIENTED_EDGE('',*,*,#326,.F.);
#228=ORIENTED_EDGE('',*,*,#337,.T.);
#229=ORIENTED_EDGE('',*,*,#303,.T.);
#230=ORIENTED_EDGE('',*,*,#338,.T.);
#231=ORIENTED_EDGE('',*,*,#335,.F.);
#232=ORIENTED_EDGE('',*,*,#310,.F.);
#233=ORIENTED_EDGE('',*,*,#289,.F.);
#234=ORIENTED_EDGE('',*,*,#319,.F.);
#235=ORIENTED_EDGE('',*,*,#336,.F.);
#236=ORIENTED_EDGE('',*,*,#322,.F.);
#237=ORIENTED_EDGE('',*,*,#295,.F.);
#238=ORIENTED_EDGE('',*,*,#327,.F.);
#239=ORIENTED_EDGE('',*,*,#338,.F.);
#240=ORIENTED_EDGE('',*,*,#302,.F.);
#241=ORIENTED_EDGE('',*,*,#283,.F.);
#242=ORIENTED_EDGE('',*,*,#312,.F.);
#243=ORIENTED_EDGE('',*,*,#337,.F.);
#244=ORIENTED_EDGE('',*,*,#329,.F.);
#245=ORIENTED_EDGE('',*,*,#277,.F.);
#246=ORIENTED_EDGE('',*,*,#304,.F.);
#247=ORIENTED_EDGE('',*,*,#339,.F.);
#248=ORIENTED_EDGE('',*,*,#334,.T.);
#249=ORIENTED_EDGE('',*,*,#340,.F.);
#250=ORIENTED_EDGE('',*,*,#339,.T.);
#251=ORIENTED_EDGE('',*,*,#341,.T.);
#252=ORIENTED_EDGE('',*,*,#340,.T.);
#253=ORIENTED_EDGE('',*,*,#341,.F.);
#254=ORIENTED_EDGE('',*,*,#342,.F.);
#255=ORIENTED_EDGE('',*,*,#300,.F.);
#256=ORIENTED_EDGE('',*,*,#274,.T.);
#257=ORIENTED_EDGE('',*,*,#342,.T.);
#258=ORIENTED_EDGE('',*,*,#333,.T.);
#259=ORIENTED_EDGE('',*,*,#343,.F.);
#260=ORIENTED_EDGE('',*,*,#309,.F.);
#261=ORIENTED_EDGE('',*,*,#343,.T.);
#262=ORIENTED_EDGE('',*,*,#280,.T.);
#263=ORIENTED_EDGE('',*,*,#332,.T.);
#264=ORIENTED_EDGE('',*,*,#344,.F.);
#265=ORIENTED_EDGE('',*,*,#317,.F.);
#266=ORIENTED_EDGE('',*,*,#344,.T.);
#267=ORIENTED_EDGE('',*,*,#286,.T.);
#268=ORIENTED_EDGE('',*,*,#331,.T.);
#269=ORIENTED_EDGE('',*,*,#345,.F.);
#270=ORIENTED_EDGE('',*,*,#325,.F.);
#271=ORIENTED_EDGE('',*,*,#292,.T.);
#272=ORIENTED_EDGE('',*,*,#345,.T.);
#273=ORIENTED_EDGE('',*,*,#330,.T.);
#274=EDGE_CURVE('',#346,#347,#394,.F.);
#275=EDGE_CURVE('',#348,#346,#18,.T.);
#276=EDGE_CURVE('',#349,#348,#19,.T.);
#277=EDGE_CURVE('',#349,#350,#20,.T.);
#278=EDGE_CURVE('',#350,#351,#21,.T.);
#279=EDGE_CURVE('',#347,#351,#22,.T.);
#280=EDGE_CURVE('',#352,#353,#395,.F.);
#281=EDGE_CURVE('',#354,#352,#23,.T.);
#282=EDGE_CURVE('',#355,#354,#24,.T.);
#283=EDGE_CURVE('',#355,#356,#25,.F.);
#284=EDGE_CURVE('',#357,#356,#26,.T.);
#285=EDGE_CURVE('',#353,#357,#27,.T.);
#286=EDGE_CURVE('',#358,#359,#396,.F.);
#287=EDGE_CURVE('',#360,#358,#28,.T.);
#288=EDGE_CURVE('',#360,#361,#29,.T.);
#289=EDGE_CURVE('',#361,#362,#30,.T.);
#290=EDGE_CURVE('',#363,#362,#31,.T.);
#291=EDGE_CURVE('',#359,#363,#32,.T.);
#292=EDGE_CURVE('',#364,#365,#397,.F.);
#293=EDGE_CURVE('',#366,#364,#33,.T.);
#294=EDGE_CURVE('',#366,#367,#34,.T.);
#295=EDGE_CURVE('',#367,#368,#35,.F.);
#296=EDGE_CURVE('',#368,#369,#36,.T.);
#297=EDGE_CURVE('',#365,#369,#37,.T.);
#298=EDGE_CURVE('',#370,#371,#38,.T.);
#299=EDGE_CURVE('',#348,#370,#39,.T.);
#300=EDGE_CURVE('',#346,#347,#40,.T.);
#301=EDGE_CURVE('',#351,#371,#41,.T.);
#302=EDGE_CURVE('',#356,#372,#42,.T.);
#303=EDGE_CURVE('',#373,#372,#43,.T.);
#304=EDGE_CURVE('',#373,#349,#44,.T.);
#305=EDGE_CURVE('',#370,#374,#45,.T.);
#306=EDGE_CURVE('',#357,#374,#46,.T.);
#307=EDGE_CURVE('',#375,#374,#47,.T.);
#308=EDGE_CURVE('',#354,#375,#48,.T.);
#309=EDGE_CURVE('',#352,#353,#49,.T.);
#310=EDGE_CURVE('',#362,#376,#50,.T.);
#311=EDGE_CURVE('',#377,#376,#51,.T.);
#312=EDGE_CURVE('',#377,#355,#52,.T.);
#313=EDGE_CURVE('',#375,#378,#53,.T.);
#314=EDGE_CURVE('',#363,#378,#54,.T.);
#315=EDGE_CURVE('',#379,#378,#55,.T.);
#316=EDGE_CURVE('',#360,#379,#56,.T.);
#317=EDGE_CURVE('',#358,#359,#57,.T.);
#318=EDGE_CURVE('',#380,#381,#58,.T.);
#319=EDGE_CURVE('',#381,#361,#59,.T.);
#320=EDGE_CURVE('',#382,#379,#60,.T.);
#321=EDGE_CURVE('',#369,#382,#61,.T.);
#322=EDGE_CURVE('',#368,#380,#62,.T.);
#323=EDGE_CURVE('',#383,#382,#63,.T.);
#324=EDGE_CURVE('',#366,#383,#64,.T.);
#325=EDGE_CURVE('',#364,#365,#65,.T.);
#326=EDGE_CURVE('',#384,#385,#66,.T.);
#327=EDGE_CURVE('',#385,#367,#67,.T.);
#328=EDGE_CURVE('',#371,#383,#68,.T.);
#329=EDGE_CURVE('',#350,#384,#69,.T.);
#330=EDGE_CURVE('',#386,#386,#398,.T.);
#331=EDGE_CURVE('',#387,#387,#399,.T.);
#332=EDGE_CURVE('',#388,#388,#400,.T.);
#333=EDGE_CURVE('',#389,#389,#401,.T.);
#334=EDGE_CURVE('',#390,#390,#402,.T.);
#335=EDGE_CURVE('',#376,#381,#70,.T.);
#336=EDGE_CURVE('',#380,#385,#71,.F.);
#337=EDGE_CURVE('',#384,#373,#72,.T.);
#338=EDGE_CURVE('',#372,#377,#73,.F.);
#339=EDGE_CURVE('',#391,#391,#403,.T.);
#340=EDGE_CURVE('',#392,#392,#404,.T.);
#341=EDGE_CURVE('',#393,#393,#405,.T.);
#342=EDGE_CURVE('',#347,#346,#406,.F.);
#343=EDGE_CURVE('',#353,#352,#407,.F.);
#344=EDGE_CURVE('',#359,#358,#408,.F.);
#345=EDGE_CURVE('',#365,#364,#409,.F.);
#346=VERTEX_POINT('',#760);
#347=VERTEX_POINT('',#761);
#348=VERTEX_POINT('',#763);
#349=VERTEX_POINT('',#765);
#350=VERTEX_POINT('',#767);
#351=VERTEX_POINT('',#769);
#352=VERTEX_POINT('',#773);
#353=VERTEX_POINT('',#774);
#354=VERTEX_POINT('',#776);
#355=VERTEX_POINT('',#778);
#356=VERTEX_POINT('',#780);
#357=VERTEX_POINT('',#782);
#358=VERTEX_POINT('',#786);
#359=VERTEX_POINT('',#787);
#360=VERTEX_POINT('',#789);
#361=VERTEX_POINT('',#791);
#362=VERTEX_POINT('',#793);
#363=VERTEX_POINT('',#795);
#364=VERTEX_POINT('',#799);
#365=VERTEX_POINT('',#800);
#366=VERTEX_POINT('',#802);
#367=VERTEX_POINT('',#804);
#368=VERTEX_POINT('',#806);
#369=VERTEX_POINT('',#808);
#370=VERTEX_POINT('',#812);
#371=VERTEX_POINT('',#813);
#372=VERTEX_POINT('',#819);
#373=VERTEX_POINT('',#821);
#374=VERTEX_POINT('',#824);
#375=VERTEX_POINT('',#828);
#376=VERTEX_POINT('',#833);
#377=VERTEX_POINT('',#835);
#378=VERTEX_POINT('',#838);
#379=VERTEX_POINT('',#842);
#380=VERTEX_POINT('',#847);
#381=VERTEX_POINT('',#848);
#382=VERTEX_POINT('',#851);
#383=VERTEX_POINT('',#856);
#384=VERTEX_POINT('',#861);
#385=VERTEX_POINT('',#862);
#386=VERTEX_POINT('',#869);
#387=VERTEX_POINT('',#871);
#388=VERTEX_POINT('',#873);
#389=VERTEX_POINT('',#875);
#390=VERTEX_POINT('',#877);
#391=VERTEX_POINT('',#888);
#392=VERTEX_POINT('',#891);
#393=VERTEX_POINT('',#894);
#394=CIRCLE('',#562,0.0025);
#395=CIRCLE('',#564,0.0025);
#396=CIRCLE('',#566,0.0025);
#397=CIRCLE('',#568,0.0025);
#398=CIRCLE('',#579,0.0025);
#399=CIRCLE('',#580,0.0025);
#400=CIRCLE('',#581,0.0025);
#401=CIRCLE('',#582,0.0025);
#402=CIRCLE('',#583,0.01905);
#403=CIRCLE('',#589,0.01905);
#404=CIRCLE('',#591,0.0025);
#405=CIRCLE('',#593,0.0025);
#406=CIRCLE('',#596,0.0025);
#407=CIRCLE('',#599,0.0025);
#408=CIRCLE('',#602,0.0025);
#409=CIRCLE('',#605,0.0025);
#410=EDGE_LOOP('',(#130,#131,#132,#133,#134,#135));
#411=EDGE_LOOP('',(#136,#137,#138,#139,#140,#141));
#412=EDGE_LOOP('',(#142,#143,#144,#145,#146,#147));
#413=EDGE_LOOP('',(#148,#149,#150,#151,#152,#153));
#414=EDGE_LOOP('',(#154,#155,#156,#157,#158,#159));
#415=EDGE_LOOP('',(#160,#161,#162,#163,#164,#165,#166,#167));
#416=EDGE_LOOP('',(#168,#169,#170,#171,#172,#173));
#417=EDGE_LOOP('',(#174,#175,#176,#177,#178,#179,#180,#181));
#418=EDGE_LOOP('',(#182,#183,#184,#185,#186,#187));
#419=EDGE_LOOP('',(#188,#189,#190,#191,#192,#193,#194,#195));
#420=EDGE_LOOP('',(#196,#197,#198,#199,#200,#201));
#421=EDGE_LOOP('',(#202,#203,#204,#205,#206,#207,#208,#209));
#422=EDGE_LOOP('',(#210,#211,#212,#213,#214,#215,#216,#217));
#423=EDGE_LOOP('',(#218));
#424=EDGE_LOOP('',(#219));
#425=EDGE_LOOP('',(#220));
#426=EDGE_LOOP('',(#221));
#427=EDGE_LOOP('',(#222));
#428=EDGE_LOOP('',(#223,#224,#225,#226,#227,#228,#229,#230));
#429=EDGE_LOOP('',(#231,#232,#233,#234));
#430=EDGE_LOOP('',(#235,#236,#237,#238));
#431=EDGE_LOOP('',(#239,#240,#241,#242));
#432=EDGE_LOOP('',(#243,#244,#245,#246));
#433=EDGE_LOOP('',(#247));
#434=EDGE_LOOP('',(#248));
#435=EDGE_LOOP('',(#249));
#436=EDGE_LOOP('',(#250));
#437=EDGE_LOOP('',(#251));
#438=EDGE_LOOP('',(#252));
#439=EDGE_LOOP('',(#253));
#440=EDGE_LOOP('',(#254,#255));
#441=EDGE_LOOP('',(#256,#257));
#442=EDGE_LOOP('',(#258));
#443=EDGE_LOOP('',(#259,#260));
#444=EDGE_LOOP('',(#261,#262));
#445=EDGE_LOOP('',(#263));
#446=EDGE_LOOP('',(#264,#265));
#447=EDGE_LOOP('',(#266,#267));
#448=EDGE_LOOP('',(#268));
#449=EDGE_LOOP('',(#269,#270));
#450=EDGE_LOOP('',(#271,#272));
#451=EDGE_LOOP('',(#273));
#452=FACE_BOUND('',#410,.T.);
#453=FACE_BOUND('',#411,.T.);
#454=FACE_BOUND('',#412,.T.);
#455=FACE_BOUND('',#413,.T.);
#456=FACE_BOUND('',#414,.T.);
#457=FACE_BOUND('',#415,.T.);
#458=FACE_BOUND('',#416,.T.);
#459=FACE_BOUND('',#417,.T.);
#460=FACE_BOUND('',#418,.T.);
#461=FACE_BOUND('',#419,.T.);
#462=FACE_BOUND('',#420,.T.);
#463=FACE_BOUND('',#421,.T.);
#464=FACE_BOUND('',#422,.T.);
#465=FACE_BOUND('',#423,.T.);
#466=FACE_BOUND('',#424,.T.);
#467=FACE_BOUND('',#425,.T.);
#468=FACE_BOUND('',#426,.T.);
#469=FACE_BOUND('',#427,.T.);
#470=FACE_BOUND('',#428,.T.);
#471=FACE_BOUND('',#429,.T.);
#472=FACE_BOUND('',#430,.T.);
#473=FACE_BOUND('',#431,.T.);
#474=FACE_BOUND('',#432,.T.);
#475=FACE_BOUND('',#433,.T.);
#476=FACE_BOUND('',#434,.T.);
#477=FACE_BOUND('',#435,.T.);
#478=FACE_BOUND('',#436,.T.);
#479=FACE_BOUND('',#437,.T.);
#480=FACE_BOUND('',#438,.T.);
#481=FACE_BOUND('',#439,.T.);
#482=FACE_BOUND('',#440,.T.);
#483=FACE_BOUND('',#441,.T.);
#484=FACE_BOUND('',#442,.T.);
#485=FACE_BOUND('',#443,.T.);
#486=FACE_BOUND('',#444,.T.);
#487=FACE_BOUND('',#445,.T.);
#488=FACE_BOUND('',#446,.T.);
#489=FACE_BOUND('',#447,.T.);
#490=FACE_BOUND('',#448,.T.);
#491=FACE_BOUND('',#449,.T.);
#492=FACE_BOUND('',#450,.T.);
#493=FACE_BOUND('',#451,.T.);
#494=PLANE('',#561);
#495=PLANE('',#563);
#496=PLANE('',#565);
#497=PLANE('',#567);
#498=PLANE('',#569);
#499=PLANE('',#570);
#500=PLANE('',#571);
#501=PLANE('',#572);
#502=PLANE('',#573);
#503=PLANE('',#574);
#504=PLANE('',#575);
#505=PLANE('',#576);
#506=PLANE('',#577);
#507=PLANE('',#578);
#508=PLANE('',#584);
#509=PLANE('',#585);
#510=PLANE('',#586);
#511=PLANE('',#587);
#512=PLANE('',#590);
#513=PLANE('',#592);
#514=PLANE('',#595);
#515=PLANE('',#598);
#516=PLANE('',#601);
#517=PLANE('',#604);
#518=ADVANCED_FACE('',(#452),#494,.F.);
#519=ADVANCED_FACE('',(#453),#495,.F.);
#520=ADVANCED_FACE('',(#454),#496,.F.);
#521=ADVANCED_FACE('',(#455),#497,.F.);
#522=ADVANCED_FACE('',(#456),#498,.T.);
#523=ADVANCED_FACE('',(#457),#499,.F.);
#524=ADVANCED_FACE('',(#458),#500,.T.);
#525=ADVANCED_FACE('',(#459),#501,.F.);
#526=ADVANCED_FACE('',(#460),#502,.T.);
#527=ADVANCED_FACE('',(#461),#503,.T.);
#528=ADVANCED_FACE('',(#462),#504,.T.);
#529=ADVANCED_FACE('',(#463),#505,.T.);
#530=ADVANCED_FACE('',(#464),#506,.F.);
#531=ADVANCED_FACE('',(#465,#466,#467,#468,#469,#470),#507,.T.);
#532=ADVANCED_FACE('',(#471),#508,.T.);
#533=ADVANCED_FACE('',(#472),#509,.F.);
#534=ADVANCED_FACE('',(#473),#510,.F.);
#535=ADVANCED_FACE('',(#474),#511,.T.);
#536=ADVANCED_FACE('',(#475,#476),#12,.T.);
#537=ADVANCED_FACE('',(#477,#478),#512,.T.);
#538=ADVANCED_FACE('',(#479),#513,.T.);
#539=ADVANCED_FACE('',(#480,#481),#13,.T.);
#540=ADVANCED_FACE('',(#482),#514,.T.);
#541=ADVANCED_FACE('',(#483,#484),#14,.F.);
#542=ADVANCED_FACE('',(#485),#515,.T.);
#543=ADVANCED_FACE('',(#486,#487),#15,.F.);
#544=ADVANCED_FACE('',(#488),#516,.T.);
#545=ADVANCED_FACE('',(#489,#490),#16,.F.);
#546=ADVANCED_FACE('',(#491),#517,.T.);
#547=ADVANCED_FACE('',(#492,#493),#17,.F.);
#548=CLOSED_SHELL('',(#518,#519,#520,#521,#522,#523,#524,#525,#526,#527,
#528,#529,#530,#531,#532,#533,#534,#535,#536,#537,#538,#539,#540,#541,#542,
#543,#544,#545,#546,#547));
#549=STYLED_ITEM('',(#550),#557);
#550=PRESENTATION_STYLE_ASSIGNMENT((#551));
#551=SURFACE_STYLE_USAGE(.BOTH.,#552);
#552=SURFACE_SIDE_STYLE('',(#553));
#553=SURFACE_STYLE_FILL_AREA(#554);
#554=FILL_AREA_STYLE('',(#555));
#555=FILL_AREA_STYLE_COLOUR('',#556);
#556=COLOUR_RGB('',0.156862745098039,0.156862745098039,0.156862745098039);
#557=MANIFOLD_SOLID_BREP('NEMA',#548);
#558=SHAPE_DEFINITION_REPRESENTATION(#914,#559);
#559=SHAPE_REPRESENTATION('NEMA',(#560),#909);
#560=AXIS2_PLACEMENT_3D('',#757,#607,#608);
#561=AXIS2_PLACEMENT_3D('',#758,#609,#610);
#562=AXIS2_PLACEMENT_3D('',#759,#611,#612);
#563=AXIS2_PLACEMENT_3D('',#771,#618,#619);
#564=AXIS2_PLACEMENT_3D('',#772,#620,#621);
#565=AXIS2_PLACEMENT_3D('',#784,#627,#628);
#566=AXIS2_PLACEMENT_3D('',#785,#629,#630);
#567=AXIS2_PLACEMENT_3D('',#797,#636,#637);
#568=AXIS2_PLACEMENT_3D('',#798,#638,#639);
#569=AXIS2_PLACEMENT_3D('',#810,#645,#646);
#570=AXIS2_PLACEMENT_3D('',#817,#651,#652);
#571=AXIS2_PLACEMENT_3D('',#826,#658,#659);
#572=AXIS2_PLACEMENT_3D('',#831,#663,#664);
#573=AXIS2_PLACEMENT_3D('',#840,#670,#671);
#574=AXIS2_PLACEMENT_3D('',#845,#675,#676);
#575=AXIS2_PLACEMENT_3D('',#854,#682,#683);
#576=AXIS2_PLACEMENT_3D('',#859,#687,#688);
#577=AXIS2_PLACEMENT_3D('',#866,#693,#694);
#578=AXIS2_PLACEMENT_3D('',#867,#695,#696);
#579=AXIS2_PLACEMENT_3D('',#868,#697,#698);
#580=AXIS2_PLACEMENT_3D('',#870,#699,#700);
#581=AXIS2_PLACEMENT_3D('',#872,#701,#702);
#582=AXIS2_PLACEMENT_3D('',#874,#703,#704);
#583=AXIS2_PLACEMENT_3D('',#876,#705,#706);
#584=AXIS2_PLACEMENT_3D('',#882,#711,#712);
#585=AXIS2_PLACEMENT_3D('',#883,#713,#714);
#586=AXIS2_PLACEMENT_3D('',#884,#715,#716);
#587=AXIS2_PLACEMENT_3D('',#885,#717,#718);
#588=AXIS2_PLACEMENT_3D('',#886,#719,#720);
#589=AXIS2_PLACEMENT_3D('',#887,#721,#722);
#590=AXIS2_PLACEMENT_3D('',#889,#723,#724);
#591=AXIS2_PLACEMENT_3D('',#890,#725,#726);
#592=AXIS2_PLACEMENT_3D('',#892,#727,#728);
#593=AXIS2_PLACEMENT_3D('',#893,#729,#730);
#594=AXIS2_PLACEMENT_3D('',#895,#731,#732);
#595=AXIS2_PLACEMENT_3D('',#896,#733,#734);
#596=AXIS2_PLACEMENT_3D('',#897,#735,#736);
#597=AXIS2_PLACEMENT_3D('',#898,#737,#738);
#598=AXIS2_PLACEMENT_3D('',#899,#739,#740);
#599=AXIS2_PLACEMENT_3D('',#900,#741,#742);
#600=AXIS2_PLACEMENT_3D('',#901,#743,#744);
#601=AXIS2_PLACEMENT_3D('',#902,#745,#746);
#602=AXIS2_PLACEMENT_3D('',#903,#747,#748);
#603=AXIS2_PLACEMENT_3D('',#904,#749,#750);
#604=AXIS2_PLACEMENT_3D('',#905,#751,#752);
#605=AXIS2_PLACEMENT_3D('',#906,#753,#754);
#606=AXIS2_PLACEMENT_3D('',#907,#755,#756);
#607=DIRECTION('',(0.,0.,1.));
#608=DIRECTION('',(1.,0.,0.));
#609=DIRECTION('',(0.,0.,1.));
#610=DIRECTION('',(1.,0.,0.));
#611=DIRECTION('',(0.,0.,1.));
#612=DIRECTION('',(1.,0.,0.));
#613=DIRECTION('',(-0.707106781186548,0.707106781186548,0.));
#614=DIRECTION('',(1.,0.,0.));
#615=DIRECTION('',(-0.707106781186548,0.707106781186548,0.));
#616=DIRECTION('',(0.,1.,0.));
#617=DIRECTION('',(-0.707106781186548,0.707106781186548,0.));
#618=DIRECTION('',(0.,0.,1.));
#619=DIRECTION('',(1.,0.,0.));
#620=DIRECTION('',(0.,0.,1.));
#621=DIRECTION('',(1.,0.,0.));
#622=DIRECTION('',(-0.707106781186548,-0.707106781186547,0.));
#623=DIRECTION('',(0.,1.,0.));
#624=DIRECTION('',(0.707106781186546,0.707106781186549,0.));
#625=DIRECTION('',(1.,0.,0.));
#626=DIRECTION('',(-0.707106781186548,-0.707106781186547,0.));
#627=DIRECTION('',(0.,0.,1.));
#628=DIRECTION('',(1.,0.,0.));
#629=DIRECTION('',(0.,0.,1.));
#630=DIRECTION('',(1.,0.,0.));
#631=DIRECTION('',(0.707106781186548,-0.707106781186548,0.));
#632=DIRECTION('',(1.,0.,0.));
#633=DIRECTION('',(0.707106781186549,-0.707106781186546,0.));
#634=DIRECTION('',(0.,1.,0.));
#635=DIRECTION('',(0.707106781186548,-0.707106781186548,0.));
#636=DIRECTION('',(0.,0.,1.));
#637=DIRECTION('',(1.,0.,0.));
#638=DIRECTION('',(0.,0.,1.));
#639=DIRECTION('',(1.,0.,0.));
#640=DIRECTION('',(0.707106781186548,0.707106781186548,0.));
#641=DIRECTION('',(0.,1.,0.));
#642=DIRECTION('',(-0.707106781186548,-0.707106781186548,0.));
#643=DIRECTION('',(1.,0.,0.));
#644=DIRECTION('',(0.707106781186548,0.707106781186548,0.));
#645=DIRECTION('',(-0.707106781186548,-0.707106781186548,0.));
#646=DIRECTION('',(0.707106781186548,-0.707106781186548,0.));
#647=DIRECTION('',(-0.707106781186548,0.707106781186548,0.));
#648=DIRECTION('',(0.,0.,-1.));
#649=DIRECTION('',(-0.707106781186548,0.707106781186548,0.));
#650=DIRECTION('',(0.,0.,-1.));
#651=DIRECTION('',(0.,1.,0.));
#652=DIRECTION('',(0.,0.,1.));
#653=DIRECTION('',(0.,0.,1.));
#654=DIRECTION('',(1.,0.,0.));
#655=DIRECTION('',(0.,0.,-1.));
#656=DIRECTION('',(1.,0.,0.));
#657=DIRECTION('',(0.,0.,-1.));
#658=DIRECTION('',(0.707106781186547,-0.707106781186548,0.));
#659=DIRECTION('',(0.707106781186548,0.707106781186547,0.));
#660=DIRECTION('',(-0.707106781186548,-0.707106781186547,0.));
#661=DIRECTION('',(0.,0.,-1.));
#662=DIRECTION('',(-0.707106781186548,-0.707106781186547,0.));
#663=DIRECTION('',(-1.,0.,0.));
#664=DIRECTION('',(0.,0.,1.));
#665=DIRECTION('',(0.,0.,1.));
#666=DIRECTION('',(0.,1.,0.));
#667=DIRECTION('',(0.,0.,-1.));
#668=DIRECTION('',(0.,1.,0.));
#669=DIRECTION('',(0.,0.,-1.));
#670=DIRECTION('',(0.707106781186548,0.707106781186548,0.));
#671=DIRECTION('',(-0.707106781186548,0.707106781186548,0.));
#672=DIRECTION('',(0.707106781186548,-0.707106781186548,0.));
#673=DIRECTION('',(0.,0.,-1.));
#674=DIRECTION('',(0.707106781186548,-0.707106781186548,0.));
#675=DIRECTION('',(0.,1.,0.));
#676=DIRECTION('',(0.,0.,1.));
#677=DIRECTION('',(1.,0.,0.));
#678=DIRECTION('',(0.,0.,-1.));
#679=DIRECTION('',(1.,0.,0.));
#680=DIRECTION('',(0.,0.,-1.));
#681=DIRECTION('',(0.,0.,1.));
#682=DIRECTION('',(-0.707106781186548,0.707106781186548,0.));
#683=DIRECTION('',(-0.707106781186548,-0.707106781186548,0.));
#684=DIRECTION('',(0.707106781186548,0.707106781186548,0.));
#685=DIRECTION('',(0.,0.,-1.));
#686=DIRECTION('',(0.707106781186548,0.707106781186548,0.));
#687=DIRECTION('',(-1.,0.,0.));
#688=DIRECTION('',(0.,0.,1.));
#689=DIRECTION('',(0.,1.,0.));
#690=DIRECTION('',(0.,0.,-1.));
#691=DIRECTION('',(0.,1.,0.));
#692=DIRECTION('',(0.,0.,1.));
#693=DIRECTION('',(0.,0.,1.));
#694=DIRECTION('',(1.,0.,0.));
#695=DIRECTION('',(0.,0.,1.));
#696=DIRECTION('',(1.,0.,0.));
#697=DIRECTION('',(0.,0.,1.));
#698=DIRECTION('',(1.,0.,0.));
#699=DIRECTION('',(0.,0.,1.));
#700=DIRECTION('',(1.,0.,0.));
#701=DIRECTION('',(0.,0.,1.));
#702=DIRECTION('',(1.,0.,0.));
#703=DIRECTION('',(0.,0.,1.));
#704=DIRECTION('',(1.,0.,0.));
#705=DIRECTION('',(0.,0.,1.));
#706=DIRECTION('',(1.,0.,0.));
#707=DIRECTION('',(-0.707106781186549,0.707106781186546,0.));
#708=DIRECTION('',(0.707106781186548,0.707106781186548,0.));
#709=DIRECTION('',(0.707106781186548,-0.707106781186548,0.));
#710=DIRECTION('',(-0.707106781186546,-0.707106781186549,0.));
#711=DIRECTION('',(0.707106781186546,0.707106781186549,0.));
#712=DIRECTION('',(0.,0.,1.));
#713=DIRECTION('',(0.707106781186548,-0.707106781186548,0.));
#714=DIRECTION('',(0.,0.,-1.));
#715=DIRECTION('',(-0.707106781186549,0.707106781186546,0.));
#716=DIRECTION('',(0.,0.,-1.));
#717=DIRECTION('',(-0.707106781186548,-0.707106781186548,0.));
#718=DIRECTION('',(0.,0.,1.));
#719=DIRECTION('',(0.,0.,-1.));
#720=DIRECTION('',(-1.,0.,0.));
#721=DIRECTION('',(0.,0.,1.));
#722=DIRECTION('',(1.,0.,0.));
#723=DIRECTION('',(0.,0.,1.));
#724=DIRECTION('',(1.,0.,0.));
#725=DIRECTION('',(0.,0.,1.));
#726=DIRECTION('',(1.,0.,0.));
#727=DIRECTION('',(0.,0.,1.));
#728=DIRECTION('',(1.,0.,0.));
#729=DIRECTION('',(0.,0.,1.));
#730=DIRECTION('',(1.,0.,0.));
#731=DIRECTION('',(0.,0.,-1.));
#732=DIRECTION('',(-1.,0.,0.));
#733=DIRECTION('',(0.,0.,1.));
#734=DIRECTION('',(1.,0.,0.));
#735=DIRECTION('',(0.,0.,1.));
#736=DIRECTION('',(1.,0.,0.));
#737=DIRECTION('',(0.,0.,1.));
#738=DIRECTION('',(1.,0.,0.));
#739=DIRECTION('',(0.,0.,1.));
#740=DIRECTION('',(1.,0.,0.));
#741=DIRECTION('',(0.,0.,1.));
#742=DIRECTION('',(1.,0.,0.));
#743=DIRECTION('',(0.,0.,1.));
#744=DIRECTION('',(1.,0.,0.));
#745=DIRECTION('',(0.,0.,1.));
#746=DIRECTION('',(1.,0.,0.));
#747=DIRECTION('',(0.,0.,1.));
#748=DIRECTION('',(1.,0.,0.));
#749=DIRECTION('',(0.,0.,1.));
#750=DIRECTION('',(1.,0.,0.));
#751=DIRECTION('',(0.,0.,1.));
#752=DIRECTION('',(1.,0.,0.));
#753=DIRECTION('',(0.,0.,1.));
#754=DIRECTION('',(1.,0.,0.));
#755=DIRECTION('',(0.,0.,1.));
#756=DIRECTION('',(1.,0.,0.));
#757=CARTESIAN_POINT('',(0.,0.,0.));
#758=CARTESIAN_POINT('',(0.0282,0.0282,0.0717));
#759=CARTESIAN_POINT('',(0.00463,0.00463,0.0717));
#760=CARTESIAN_POINT('',(0.00634191114660585,0.00280808885339415,0.0717));
#761=CARTESIAN_POINT('',(0.00280808885339415,0.00634191114660585,0.0717));
#762=CARTESIAN_POINT('',(0.004575,0.004575,0.0717));
#763=CARTESIAN_POINT('',(0.00915,-4.33680868994202E-19,0.0717));
#764=CARTESIAN_POINT('',(0.0282,0.,0.0717));
#765=CARTESIAN_POINT('',(0.002,0.,0.0717));
#766=CARTESIAN_POINT('',(0.002,0.,0.0717));
#767=CARTESIAN_POINT('',(0.,0.002,0.0717));
#768=CARTESIAN_POINT('',(0.,0.0282,0.0717));
#769=CARTESIAN_POINT('',(8.67361737988404E-19,0.00915,0.0717));
#770=CARTESIAN_POINT('',(0.004575,0.004575,0.0717));
#771=CARTESIAN_POINT('',(0.0282,0.0282,0.0717));
#772=CARTESIAN_POINT('',(0.05177,0.00463,0.0717));
#773=CARTESIAN_POINT('',(0.0535919111466058,0.00634191114660584,0.0717));
#774=CARTESIAN_POINT('',(0.0500580888533942,0.00280808885339413,0.0717));
#775=CARTESIAN_POINT('',(0.051825,0.004575,0.0717));
#776=CARTESIAN_POINT('',(0.0564,0.00915,0.0717));
#777=CARTESIAN_POINT('',(0.0564,0.0282,0.0717));
#778=CARTESIAN_POINT('',(0.0564,0.002,0.0717));
#779=CARTESIAN_POINT('',(0.0564,0.002,0.0717));
#780=CARTESIAN_POINT('',(0.0544,0.,0.0717));
#781=CARTESIAN_POINT('',(0.0282,0.,0.0717));
#782=CARTESIAN_POINT('',(0.04725,-2.16840434497101E-18,0.0717));
#783=CARTESIAN_POINT('',(0.051825,0.004575,0.0717));
#784=CARTESIAN_POINT('',(0.0282,0.0282,0.0717));
#785=CARTESIAN_POINT('',(0.05177,0.05177,0.0717));
#786=CARTESIAN_POINT('',(0.0500580888533942,0.0535919111466058,0.0717));
#787=CARTESIAN_POINT('',(0.0535919111466059,0.0500580888533942,0.0717));
#788=CARTESIAN_POINT('',(0.051825,0.051825,0.0717));
#789=CARTESIAN_POINT('',(0.04725,0.0564,0.0717));
#790=CARTESIAN_POINT('',(0.0282,0.0564,0.0717));
#791=CARTESIAN_POINT('',(0.0544,0.0564,0.0717));
#792=CARTESIAN_POINT('',(0.0544,0.0564,0.0717));
#793=CARTESIAN_POINT('',(0.0564,0.0544,0.0717));
#794=CARTESIAN_POINT('',(0.0564,0.0282,0.0717));
#795=CARTESIAN_POINT('',(0.0564,0.04725,0.0717));
#796=CARTESIAN_POINT('',(0.051825,0.051825,0.0717));
#797=CARTESIAN_POINT('',(0.0282,0.0282,0.0717));
#798=CARTESIAN_POINT('',(0.00463,0.05177,0.0717));
#799=CARTESIAN_POINT('',(0.00280808885339415,0.0500580888533942,0.0717));
#800=CARTESIAN_POINT('',(0.00634191114660585,0.0535919111466058,0.0717));
#801=CARTESIAN_POINT('',(0.004575,0.051825,0.0717));
#802=CARTESIAN_POINT('',(-2.16840434497101E-18,0.04725,0.0717));
#803=CARTESIAN_POINT('',(0.,0.0282,0.0717));
#804=CARTESIAN_POINT('',(0.,0.0544,0.0717));
#805=CARTESIAN_POINT('',(0.,0.0544,0.0717));
#806=CARTESIAN_POINT('',(0.002,0.0564,0.0717));
#807=CARTESIAN_POINT('',(0.0282,0.0564,0.0717));
#808=CARTESIAN_POINT('',(0.00915,0.0564,0.0717));
#809=CARTESIAN_POINT('',(0.004575,0.051825,0.0717));
#810=CARTESIAN_POINT('',(0.004575,0.004575,0.0717));
#811=CARTESIAN_POINT('',(0.004575,0.004575,0.));
#812=CARTESIAN_POINT('',(0.00915,8.67361737988404E-19,0.));
#813=CARTESIAN_POINT('',(0.,0.00915,0.));
#814=CARTESIAN_POINT('',(0.00915,8.67361737988404E-19,0.0717));
#815=CARTESIAN_POINT('',(0.004575,0.004575,0.0717));
#816=CARTESIAN_POINT('',(0.,0.00915,0.0717));
#817=CARTESIAN_POINT('',(0.0282,0.,0.0717));
#818=CARTESIAN_POINT('',(0.0544,0.,0.0717));
#819=CARTESIAN_POINT('',(0.0544,0.,0.0765));
#820=CARTESIAN_POINT('',(0.0282,0.,0.0765));
#821=CARTESIAN_POINT('',(0.002,0.,0.0765));
#822=CARTESIAN_POINT('',(0.002,0.,0.0717));
#823=CARTESIAN_POINT('',(0.0282,0.,0.));
#824=CARTESIAN_POINT('',(0.04725,1.7347234759768E-18,0.));
#825=CARTESIAN_POINT('',(0.04725,1.7347234759768E-18,0.0717));
#826=CARTESIAN_POINT('',(0.051825,0.004575,0.0717));
#827=CARTESIAN_POINT('',(0.051825,0.004575,0.));
#828=CARTESIAN_POINT('',(0.0564,0.00915,0.));
#829=CARTESIAN_POINT('',(0.0564,0.00915,0.0717));
#830=CARTESIAN_POINT('',(0.051825,0.004575,0.0717));
#831=CARTESIAN_POINT('',(0.0564,0.0282,0.0717));
#832=CARTESIAN_POINT('',(0.0564,0.0544,0.0765));
#833=CARTESIAN_POINT('',(0.0564,0.0544,0.0765));
#834=CARTESIAN_POINT('',(0.0564,0.0282,0.0765));
#835=CARTESIAN_POINT('',(0.0564,0.002,0.0765));
#836=CARTESIAN_POINT('',(0.0564,0.002,0.0717));
#837=CARTESIAN_POINT('',(0.0564,0.0282,0.));
#838=CARTESIAN_POINT('',(0.0564,0.04725,0.));
#839=CARTESIAN_POINT('',(0.0564,0.04725,0.0717));
#840=CARTESIAN_POINT('',(0.051825,0.051825,0.0717));
#841=CARTESIAN_POINT('',(0.051825,0.051825,0.));
#842=CARTESIAN_POINT('',(0.04725,0.0564,0.));
#843=CARTESIAN_POINT('',(0.04725,0.0564,0.0717));
#844=CARTESIAN_POINT('',(0.051825,0.051825,0.0717));
#845=CARTESIAN_POINT('',(0.0282,0.0564,0.0717));
#846=CARTESIAN_POINT('',(0.0282,0.0564,0.0765));
#847=CARTESIAN_POINT('',(0.002,0.0564,0.0765));
#848=CARTESIAN_POINT('',(0.0544,0.0564,0.0765));
#849=CARTESIAN_POINT('',(0.0544,0.0564,0.0717));
#850=CARTESIAN_POINT('',(0.0282,0.0564,0.));
#851=CARTESIAN_POINT('',(0.00915,0.0564,0.));
#852=CARTESIAN_POINT('',(0.00915,0.0564,0.0717));
#853=CARTESIAN_POINT('',(0.002,0.0564,0.0717));
#854=CARTESIAN_POINT('',(0.004575,0.051825,0.0717));
#855=CARTESIAN_POINT('',(0.004575,0.051825,0.));
#856=CARTESIAN_POINT('',(-2.60208521396521E-18,0.04725,0.));
#857=CARTESIAN_POINT('',(-2.60208521396521E-18,0.04725,0.0717));
#858=CARTESIAN_POINT('',(0.004575,0.051825,0.0717));
#859=CARTESIAN_POINT('',(0.,0.0282,0.0717));
#860=CARTESIAN_POINT('',(0.,0.0282,0.0765));
#861=CARTESIAN_POINT('',(0.,0.002,0.0765));
#862=CARTESIAN_POINT('',(0.,0.0544,0.0765));
#863=CARTESIAN_POINT('',(0.,0.0544,0.0717));
#864=CARTESIAN_POINT('',(0.,0.0282,0.));
#865=CARTESIAN_POINT('',(0.,0.002,0.0765));
#866=CARTESIAN_POINT('',(0.0282,0.0282,0.));
#867=CARTESIAN_POINT('',(0.0282,0.0282,0.0765));
#868=CARTESIAN_POINT('',(0.00463,0.05177,0.0765));
#869=CARTESIAN_POINT('',(0.00713,0.05177,0.0765));
#870=CARTESIAN_POINT('',(0.05177,0.05177,0.0765));
#871=CARTESIAN_POINT('',(0.05427,0.05177,0.0765));
#872=CARTESIAN_POINT('',(0.05177,0.00463,0.0765));
#873=CARTESIAN_POINT('',(0.05427,0.00463,0.0765));
#874=CARTESIAN_POINT('',(0.00463,0.00463,0.0765));
#875=CARTESIAN_POINT('',(0.00713,0.00463,0.0765));
#876=CARTESIAN_POINT('',(0.0282,0.0282,0.0765));
#877=CARTESIAN_POINT('',(0.04725,0.0282,0.0765));
#878=CARTESIAN_POINT('',(0.0554,0.0554,0.0765));
#879=CARTESIAN_POINT('',(0.001,0.0554,0.0765));
#880=CARTESIAN_POINT('',(0.001,0.001,0.0765));
#881=CARTESIAN_POINT('',(0.0554,0.00100000000000005,0.0765));
#882=CARTESIAN_POINT('',(0.0544,0.0564,0.0717));
#883=CARTESIAN_POINT('',(0.,0.0544,0.0717));
#884=CARTESIAN_POINT('',(0.0564,0.002,0.0717));
#885=CARTESIAN_POINT('',(0.002,0.,0.0717));
#886=CARTESIAN_POINT('',(0.0282,0.0282,0.0781));
#887=CARTESIAN_POINT('',(0.0282,0.0282,0.0781));
#888=CARTESIAN_POINT('',(0.04725,0.0282,0.0781));
#889=CARTESIAN_POINT('',(0.0282,0.0282,0.0781));
#890=CARTESIAN_POINT('',(0.0282,0.0282,0.0781));
#891=CARTESIAN_POINT('',(0.0307,0.0282,0.0781));
#892=CARTESIAN_POINT('',(0.0282,0.0282,0.1005));
#893=CARTESIAN_POINT('',(0.0282,0.0282,0.1005));
#894=CARTESIAN_POINT('',(0.0307,0.0282,0.1005));
#895=CARTESIAN_POINT('',(0.0282,0.0282,0.1005));
#896=CARTESIAN_POINT('',(0.0282,0.0282,0.0717));
#897=CARTESIAN_POINT('',(0.00463,0.00463,0.0717));
#898=CARTESIAN_POINT('',(0.00463,0.00463,0.071698));
#899=CARTESIAN_POINT('',(0.0282,0.0282,0.0717));
#900=CARTESIAN_POINT('',(0.05177,0.00463,0.0717));
#901=CARTESIAN_POINT('',(0.05177,0.00463,0.071698));
#902=CARTESIAN_POINT('',(0.0282,0.0282,0.0717));
#903=CARTESIAN_POINT('',(0.05177,0.05177,0.0717));
#904=CARTESIAN_POINT('',(0.05177,0.05177,0.071698));
#905=CARTESIAN_POINT('',(0.0282,0.0282,0.0717));
#906=CARTESIAN_POINT('',(0.00463,0.05177,0.0717));
#907=CARTESIAN_POINT('',(0.00463,0.05177,0.071698));
#908=MECHANICAL_DESIGN_GEOMETRIC_PRESENTATION_REPRESENTATION('',(#549),
#909);
#909=(
GEOMETRIC_REPRESENTATION_CONTEXT(3)
GLOBAL_UNCERTAINTY_ASSIGNED_CONTEXT((#910))
GLOBAL_UNIT_ASSIGNED_CONTEXT((#913,#912,#911))
REPRESENTATION_CONTEXT('NEMA','TOP_LEVEL_ASSEMBLY_PART')
);
#910=UNCERTAINTY_MEASURE_WITH_UNIT(LENGTH_MEASURE(1.E-8),#913,
'DISTANCE_ACCURACY_VALUE','Maximum Tolerance applied to model');
#911=(
NAMED_UNIT(*)
SI_UNIT($,.STERADIAN.)
SOLID_ANGLE_UNIT()
);
#912=(
NAMED_UNIT(*)
PLANE_ANGLE_UNIT()
SI_UNIT($,.RADIAN.)
);
#913=(
LENGTH_UNIT()
NAMED_UNIT(*)
SI_UNIT($,.METRE.)
);
#914=PRODUCT_DEFINITION_SHAPE('','',#915);
#915=PRODUCT_DEFINITION('','',#917,#916);
#916=PRODUCT_DEFINITION_CONTEXT('',#923,'design');
#917=PRODUCT_DEFINITION_FORMATION_WITH_SPECIFIED_SOURCE('','',#919,
 .NOT_KNOWN.);
#918=PRODUCT_RELATED_PRODUCT_CATEGORY('','',(#919));
#919=PRODUCT('NEMA','NEMA','NEMA',(#921));
#920=PRODUCT_CATEGORY('','');
#921=PRODUCT_CONTEXT('',#923,'mechanical');
#922=APPLICATION_PROTOCOL_DEFINITION('international standard',
'ap242_managed_model_based_3d_engineering',2020,#923);
#923=APPLICATION_CONTEXT('managed model based 3d engineering');
ENDSEC;
END-ISO-10303-21;
